<svg width="30" height="30" viewBox="0 0 30 30" fill="none" xmlns="http://www.w3.org/2000/svg">
<path d="M20.7624 25.0001C22.4374 25.0126 24.0499 24.3876 25.2874 23.2626C29.3749 19.6876 27.1874 12.5126 21.7999 11.8376C19.8749 0.162558 3.03741 4.58756 7.02491 15.7001" stroke="white" stroke-width="1.5" stroke-miterlimit="10" stroke-linecap="round" stroke-linejoin="round"/>
<path d="M9.09995 16.2125C8.43745 15.875 7.69995 15.7 6.96245 15.7125C1.13745 16.125 1.14995 24.6 6.96245 25.0125" stroke="white" stroke-width="1.5" stroke-miterlimit="10" stroke-linecap="round" stroke-linejoin="round"/>
<path d="M19.7749 12.3626C20.4249 12.0376 21.1249 11.8626 21.8499 11.8501" stroke="white" stroke-width="1.5" stroke-miterlimit="10" stroke-linecap="round" stroke-linejoin="round"/>
<path d="M12.4624 25L9.9624 27.5" stroke="white" stroke-width="1.5" stroke-miterlimit="10" stroke-linecap="round" stroke-linejoin="round"/>
<path d="M17.4624 25L14.9624 27.5" stroke="white" stroke-width="1.5" stroke-miterlimit="10" stroke-linecap="round" stroke-linejoin="round"/>
<path d="M17.4624 20L14.9624 22.5" stroke="white" stroke-width="1.5" stroke-miterlimit="10" stroke-linecap="round" stroke-linejoin="round"/>
<path d="M12.4624 20L9.9624 22.5" stroke="white" stroke-width="1.5" stroke-miterlimit="10" stroke-linecap="round" stroke-linejoin="round"/>
</svg>
