<svg width="28" height="28" viewBox="0 0 28 28" fill="none" xmlns="http://www.w3.org/2000/svg">
<path d="M20.2883 18.2817L15.575 14H12.4133L7.69999 18.2817C6.38166 19.4717 5.94999 21.3033 6.59166 22.96C7.23333 24.605 8.79666 25.6667 10.5583 25.6667H17.43C19.2033 25.6667 20.755 24.605 21.3967 22.96C22.0383 21.3033 21.6067 19.4717 20.2883 18.2817ZM16.1233 21.1633H11.8767C11.4333 21.1633 11.0833 20.8017 11.0833 20.37C11.0833 19.9383 11.445 19.5767 11.8767 19.5767H16.1233C16.5667 19.5767 16.9167 19.9383 16.9167 20.37C16.9167 20.8017 16.555 21.1633 16.1233 21.1633Z" fill="#363537"/>
<path d="M21.4083 5.04004C20.7667 3.39504 19.2033 2.33337 17.4417 2.33337H10.5583C8.79668 2.33337 7.23335 3.39504 6.59168 5.04004C5.96168 6.69671 6.39335 8.52837 7.71168 9.71837L12.425 14H15.5867L20.3 9.71837C21.6067 8.52837 22.0383 6.69671 21.4083 5.04004ZM16.1233 8.43504H11.8767C11.4333 8.43504 11.0833 8.07337 11.0833 7.64171C11.0833 7.21004 11.445 6.84837 11.8767 6.84837H16.1233C16.5667 6.84837 16.9167 7.21004 16.9167 7.64171C16.9167 8.07337 16.555 8.43504 16.1233 8.43504Z" fill="#363537"/>
</svg>
