<svg width="28" height="28" viewBox="0 0 28 28" fill="none" xmlns="http://www.w3.org/2000/svg">
<path d="M13.965 2.33337C7.52501 2.33337 2.29834 7.56004 2.29834 14C2.29834 20.44 7.52501 25.6667 13.965 25.6667C20.405 25.6667 25.6317 20.44 25.6317 14C25.6317 7.56004 20.4167 2.33337 13.965 2.33337ZM18.34 14.4084L14 19.3434L13.4867 19.9267C12.775 20.7317 12.1917 20.5217 12.1917 19.4367V14.8167H10.2083C9.31001 14.8167 9.06501 14.2684 9.66001 13.5917L14 8.65671L14.5133 8.07337C15.225 7.26837 15.8083 7.47837 15.8083 8.56337V13.1834H17.7917C18.69 13.1834 18.935 13.7317 18.34 14.4084Z" fill="#363537"/>
</svg>
