<svg width="28" height="28" viewBox="0 0 28 28" fill="none" xmlns="http://www.w3.org/2000/svg">
<path d="M19.5417 4.15337V2.33337C19.5417 1.85504 19.145 1.45837 18.6667 1.45837C18.1883 1.45837 17.7917 1.85504 17.7917 2.33337V4.08337H10.2083V2.33337C10.2083 1.85504 9.81168 1.45837 9.33335 1.45837C8.85501 1.45837 8.45835 1.85504 8.45835 2.33337V4.15337C5.30835 4.44504 3.78001 6.32337 3.54668 9.11171C3.52335 9.45004 3.80335 9.73004 4.13001 9.73004H23.87C24.2083 9.73004 24.4883 9.43837 24.4533 9.11171C24.22 6.32337 22.6917 4.44504 19.5417 4.15337Z" fill="#363537"/>
<path d="M23.3333 11.48H4.66667C4.025 11.48 3.5 12.005 3.5 12.6466V19.8333C3.5 23.3333 5.25 25.6666 9.33333 25.6666H18.6667C22.75 25.6666 24.5 23.3333 24.5 19.8333V12.6466C24.5 12.005 23.975 11.48 23.3333 11.48ZM17.3133 17.4883L16.73 18.0833H16.7183L13.1833 21.6183C13.0317 21.77 12.7167 21.9333 12.495 21.9566L10.92 22.19C10.3483 22.2716 9.95167 21.8633 10.0333 21.3033L10.255 19.7166C10.29 19.495 10.4417 19.1916 10.5933 19.0283L14.14 15.4933L14.7233 14.8983C15.1083 14.5133 15.54 14.2333 16.0067 14.2333C16.4033 14.2333 16.835 14.42 17.3133 14.8983C18.3633 15.9483 18.025 16.7766 17.3133 17.4883Z" fill="#363537"/>
</svg>
