<svg width="30" height="30" viewBox="0 0 30 30" fill="none" xmlns="http://www.w3.org/2000/svg">
<path d="M2.5 18.75H23.125C25.5375 18.75 27.5 20.7125 27.5 23.125C27.5 25.5375 25.5375 27.5 23.125 27.5C20.7125 27.5 18.75 25.5375 18.75 23.125V22.5" stroke="white" stroke-width="1.5" stroke-miterlimit="10" stroke-linecap="round" stroke-linejoin="round"/>
<path d="M2.5 15H23.125C25.525 15 27.5 13.0375 27.5 10.625C27.5 8.225 25.525 6.25 23.125 6.25C20.725 6.25 18.75 8.2125 18.75 10.625V11.25" stroke="white" stroke-width="1.5" stroke-miterlimit="10" stroke-linecap="round" stroke-linejoin="round"/>
<path d="M2.5 11.25H11.6375C13.5 11.25 15 9.73752 15 7.88752C15 6.02502 13.4875 4.52502 11.6375 4.52502C9.775 4.52502 8.27499 6.03752 8.27499 7.88752V8.36252" stroke="white" stroke-width="1.5" stroke-miterlimit="10" stroke-linecap="round" stroke-linejoin="round"/>
</svg>
